<?xml version="1.0" encoding="utf-8"?>
<!-- Generator: Adobe Illustrator 22.0.0, SVG Export Plug-In . SVG Version: 6.00 Build 0)  -->
<svg xmlns="http://www.w3.org/2000/svg" xmlns:xlink="http://www.w3.org/1999/xlink" version="1.1" id="Layer_1" x="0px" y="0px" viewBox="0 0 500 500" style="enable-background:new 0 0 500 500;" xml:space="preserve" width="512" height="512">
<style type="text/css">
	.st0{fill:#83E1E5;}
	.st1{fill:#AAB1BA;}
	.st2{fill:#ECF4F7;}
	.st3{fill:#FDDF7F;}
	.st4{fill:#1C1D21;}
	.st5{fill:#FFFFFF;}
</style>
<g>
	<g>
		<path class="st1" d="M116.658,201.898l18.42,18.421c22.308-14.992,47.705-25.734,75.034-31.089v-26.042    c0-9.134,7.405-16.538,16.54-16.538h18.808v-17.533c0-3.777-3.062-6.84-6.839-6.84h-15.799    c-2.076-9.955-6.005-19.226-11.393-27.456l11.185-11.186c2.671-2.671,2.671-7,0-9.672l-13.653-13.652    c-2.671-2.671-7.001-2.671-9.671,0l-11.185,11.185c-8.231-5.388-17.501-9.316-27.457-11.393V44.306    c0-3.777-3.062-6.839-6.838-6.839h-19.308c-3.777,0-6.839,3.063-6.839,6.839v15.798c-9.955,2.077-19.226,6.005-27.456,11.393    L89.023,60.312c-2.67-2.671-7.001-2.671-9.671,0L65.698,73.964c-2.67,2.671-2.67,7,0,9.672l11.186,11.185    c-5.388,8.23-9.316,17.501-11.393,27.456H49.693c-3.777,0-6.839,3.063-6.839,6.84v19.307c0,3.778,3.062,6.84,6.839,6.84h15.798    c2.077,9.955,6.005,19.225,11.393,27.456l-11.186,11.186c-2.67,2.671-2.67,7.001,0,9.671l12.946,12.946l14.624-14.623    C99.728,195.44,110.199,195.44,116.658,201.898z"/>
	</g>
</g>
<g>
	<g>
		<circle class="st2" cx="144.157" cy="138.771" r="42.641"/>
	</g>
</g>
<g>
	<g>
		<path class="st3" d="M21.54,431.538h26.041c4.45,22.711,12.632,44.083,23.872,63.462h357.095    c11.24-19.379,19.421-40.751,23.872-63.462h26.041c9.134,0,16.54-7.406,16.54-16.541v-46.695c0-9.135-7.405-16.539-16.54-16.539    h-26.041c-5.355-27.33-16.097-52.727-31.089-75.034l18.42-18.421c6.459-6.459,6.459-16.931,0-23.39L406.731,201.9    c-6.459-6.459-16.931-6.459-23.39-0.001l-18.42,18.421c-22.307-14.992-47.704-25.734-75.034-31.089v-26.041    c0-9.134-7.405-16.539-16.54-16.539h-46.695c-9.135,0-16.54,7.405-16.54,16.539v26.041c-27.329,5.355-52.726,16.097-75.034,31.089    l-18.42-18.421c-6.459-6.458-16.931-6.458-23.39,0.001l-33.019,33.018c-6.459,6.459-6.459,16.931,0,23.39l18.42,18.421    c-14.992,22.307-25.734,47.704-31.089,75.034H21.54c-9.135,0-16.54,7.404-16.54,16.539v46.695    C5,424.132,12.405,431.538,21.54,431.538z"/>
	</g>
</g>
<g>
	<g>
		<path class="st0" d="M372.485,495c23.569-27.904,37.785-63.965,37.785-103.35c0-88.514-71.755-160.27-160.27-160.27    S89.73,303.135,89.73,391.65c0,39.386,14.216,75.446,37.785,103.35H372.485z"/>
	</g>
</g>
<g>
	<g>
		<g>
			<path class="st2" d="M200.717,415.498c-2.471,0-4.967-0.713-7.167-2.202l-58.955-39.905c-3.52-2.382-5.628-6.356-5.628-10.606     c0-4.25,2.109-8.224,5.628-10.606l58.955-39.905c5.858-3.966,13.82-2.43,17.785,3.427c3.965,5.858,2.431,13.82-3.427,17.785     l-43.286,29.299l43.286,29.299c5.858,3.965,7.392,11.927,3.427,17.785C208.859,413.526,204.825,415.498,200.717,415.498z"/>
		</g>
	</g>
</g>
<g>
	<g>
		<g>
			<path class="st2" d="M299.283,415.498c-4.108,0-8.142-1.972-10.618-5.629c-3.965-5.858-2.431-13.82,3.427-17.785l43.286-29.299     l-43.286-29.299c-5.858-3.965-7.392-11.927-3.427-17.785c3.965-5.858,11.927-7.392,17.785-3.427l58.955,39.905     c3.52,2.382,5.628,6.356,5.628,10.606c0,4.25-2.108,8.224-5.628,10.606l-58.955,39.905     C304.25,414.785,301.753,415.498,299.283,415.498z"/>
		</g>
	</g>
</g>
<g>
	<g>
		<g>
			<path class="st2" d="M243.768,438.897c-0.409,0-0.822-0.019-1.238-0.059c-7.041-0.675-12.201-6.93-11.526-13.971l12.495-130.3     c0.675-7.041,6.919-12.214,13.971-11.526c7.041,0.675,12.201,6.93,11.526,13.971l-12.495,130.3     C255.866,433.937,250.29,438.897,243.768,438.897z"/>
		</g>
	</g>
</g>
<path class="st4" d="M237.899,15.833c0-2.762,2.238-5,5-5h5.833V5c0-2.762,2.238-5,5-5s5,2.238,5,5v5.833h5.833c2.762,0,5,2.238,5,5  s-2.238,5-5,5h-5.833v5.833c0,2.762-2.238,5-5,5s-5-2.238-5-5v-5.833h-5.833C240.138,20.833,237.899,18.595,237.899,15.833z   M289.971,78.237h5.833v5.833c0,2.762,2.238,5,5,5s5-2.238,5-5v-5.833h5.833c2.762,0,5-2.238,5-5s-2.238-5-5-5h-5.833v-5.832  c0-2.762-2.238-5-5-5s-5,2.238-5,5v5.832h-5.833c-2.762,0-5,2.238-5,5S287.209,78.237,289.971,78.237z M191.799,138.771  c0,26.27-21.372,47.642-47.642,47.642s-47.642-21.372-47.642-47.642s21.372-47.642,47.642-47.642S191.799,112.501,191.799,138.771z   M181.799,138.771c0-20.756-16.886-37.642-37.642-37.642s-37.642,16.886-37.642,37.642s16.886,37.642,37.642,37.642  S181.799,159.526,181.799,138.771z M11.977,490H5c-2.762,0-5,2.238-5,5s2.238,5,5,5h6.977c2.762,0,5-2.238,5-5  S14.738,490,11.977,490z M495,490h-6.977c-2.762,0-5,2.238-5,5s2.238,5,5,5H495c2.762,0,5-2.238,5-5S497.762,490,495,490z   M49.693,160.264h11.833c1.978,7.624,4.999,14.903,9.018,21.725l-8.382,8.382c-4.614,4.616-4.614,12.127,0.001,16.741  c0.976,0.977,2.256,1.465,3.535,1.465s2.56-0.488,3.535-1.465c1.953-1.952,1.953-5.118,0-7.07c-0.716-0.717-0.716-1.884,0-2.601  l11.186-11.186c1.675-1.674,1.945-4.292,0.648-6.273c-5.174-7.904-8.768-16.563-10.682-25.739c-0.483-2.317-2.526-3.979-4.895-3.979  H49.693c-1.015,0-1.84-0.825-1.84-1.84v-19.307c0-1.015,0.825-1.84,1.84-1.84h15.798c2.368,0,4.411-1.661,4.895-3.979  c1.915-9.177,5.509-17.837,10.682-25.739c1.297-1.98,1.026-4.6-0.648-6.274L69.235,80.103c-0.718-0.718-0.718-1.886-0.002-2.602  l13.655-13.654c0.468-0.468,1.015-0.538,1.298-0.538c0.284,0,0.831,0.07,1.301,0.54l11.186,11.185  c1.673,1.674,4.292,1.945,6.273,0.647c7.904-5.174,16.563-8.769,25.739-10.683c2.317-0.483,3.979-2.526,3.979-4.895V44.307  c0-1.015,0.825-1.84,1.84-1.84h19.308c1.014,0,1.839,0.825,1.839,1.84v15.797c0,2.367,1.66,4.411,3.979,4.895  c9.178,1.916,17.837,5.51,25.739,10.683c1.98,1.297,4.599,1.023,6.273-0.647l11.187-11.186c0.469-0.469,1.016-0.539,1.3-0.539  s0.83,0.07,1.3,0.54L219.081,77.5c0.717,0.718,0.716,1.885,0,2.602l-11.186,11.186c-1.675,1.674-1.945,4.293-0.648,6.273  c5.175,7.903,8.768,16.563,10.682,25.737c0.483,2.318,2.526,3.979,4.895,3.979h15.799c1.014,0,1.839,0.825,1.839,1.84  c0,2.762,2.238,5,5,5s5-2.238,5-5c0-6.528-5.311-11.84-11.839-11.84h-11.834c-1.977-7.624-4.998-14.902-9.018-21.724l8.382-8.382  c4.615-4.617,4.614-12.127-0.001-16.743L212.5,56.778c-2.236-2.237-5.209-3.47-8.372-3.47s-6.136,1.232-8.371,3.468l-8.382,8.381  c-6.82-4.019-14.1-7.04-21.725-9.018V44.307c0-6.528-5.311-11.84-11.839-11.84h-19.308c-6.528,0-11.84,5.312-11.84,11.84v11.832  c-7.624,1.978-14.903,4.999-21.725,9.019l-8.38-8.379c-2.236-2.237-5.209-3.47-8.373-3.47c-3.163,0-6.136,1.232-8.37,3.468  L62.162,70.43c-4.613,4.615-4.613,12.125,0.001,16.743l8.381,8.38c-4.019,6.82-7.04,14.1-9.018,21.725H49.693  c-6.528,0-11.84,5.312-11.84,11.84v19.307C37.854,154.952,43.165,160.264,49.693,160.264z M383.301,480.766  c0.824,0.517,1.741,0.763,2.647,0.763c1.666,0,3.295-0.832,4.243-2.349c16.406-26.218,25.078-56.484,25.078-87.53  c0-91.13-74.14-165.27-165.27-165.27S84.73,300.52,84.73,391.649c0,31.046,8.672,61.313,25.078,87.53  c1.463,2.341,4.549,3.053,6.891,1.586c2.341-1.465,3.051-4.55,1.586-6.891c-15.409-24.625-23.555-53.059-23.555-82.226  c0-85.616,69.653-155.27,155.27-155.27s155.27,69.653,155.27,155.27c0,29.167-8.146,57.601-23.555,82.226  C380.25,476.216,380.96,479.301,383.301,480.766z M478.461,346.763h-21.967c-5.349-24.755-15.004-48.057-28.747-69.38l15.538-15.54  c8.398-8.397,8.398-22.063,0-30.46l-33.019-33.019c-8.396-8.398-22.061-8.398-30.46-0.001l-15.54,15.539  c-21.323-13.743-44.625-23.398-69.379-28.748v-21.966c0-11.876-9.663-21.538-21.54-21.538h-46.695  c-11.877,0-21.539,9.662-21.539,21.538v21.966c-24.755,5.349-48.057,15.005-69.38,28.748l-15.54-15.54  c-8.398-8.396-22.063-8.396-30.46,0.002l-33.019,33.019c-8.398,8.397-8.398,22.063,0,30.46l15.538,15.54  c-13.743,21.323-23.398,44.625-28.747,69.38H21.54C9.663,346.763,0,356.425,0,368.302v46.695c0,11.878,9.663,21.541,21.54,21.541  h21.967c3.128,14.439,7.792,28.566,13.889,42.049c1.137,2.517,4.1,3.637,6.615,2.496c2.517-1.138,3.634-4.1,2.496-6.615  c-6.346-14.036-11.063-28.803-14.02-43.892c-0.459-2.346-2.516-4.038-4.906-4.038H21.54c-6.363,0-11.54-5.178-11.54-11.541v-46.695  c0-6.362,5.177-11.539,11.54-11.539h26.041c2.391,0,4.447-1.692,4.906-4.039c5.152-26.295,15.357-50.925,30.332-73.206  c1.334-1.984,1.076-4.634-0.613-6.324l-18.421-18.421c-4.499-4.499-4.499-11.82,0-16.319l33.019-33.019  c4.5-4.498,11.819-4.497,16.319-0.001l18.421,18.421c1.688,1.689,4.339,1.948,6.324,0.614c22.282-14.975,46.912-25.18,73.207-30.333  c2.346-0.459,4.038-2.516,4.038-4.906v-26.041c0-6.362,5.177-11.538,11.539-11.538h46.695c6.363,0,11.54,5.176,11.54,11.538v26.041  c0,2.391,1.692,4.447,4.038,4.906c26.294,5.153,50.924,15.358,73.206,30.333c1.985,1.335,4.636,1.077,6.324-0.614l18.421-18.42  c4.5-4.5,11.819-4.498,16.319,0l33.019,33.019c4.499,4.499,4.499,11.82,0,16.319l-18.421,18.421c-1.689,1.69-1.947,4.34-0.613,6.324  c14.975,22.281,25.18,46.911,30.332,73.206c0.459,2.347,2.516,4.039,4.906,4.039h26.042c6.362,0,11.539,5.177,11.539,11.539v46.695  c0,6.363-5.177,11.541-11.539,11.541h-26.042c-2.391,0-4.447,1.692-4.906,4.038c-2.957,15.089-7.674,29.855-14.02,43.892  c-1.138,2.516-0.021,5.478,2.496,6.615c0.668,0.303,1.368,0.445,2.057,0.445c1.904,0,3.724-1.094,4.559-2.941  c6.097-13.482,10.761-27.609,13.889-42.049h21.968c11.877,0,21.539-9.663,21.539-21.541v-46.695  C500,356.425,490.338,346.763,478.461,346.763z M200.718,420.498c-3.563,0-7.012-1.059-9.971-3.062l-58.955-39.905  c-4.9-3.317-7.825-8.83-7.825-14.747c0-5.918,2.926-11.431,7.825-14.746l58.955-39.905c3.938-2.667,8.682-3.643,13.352-2.739  c4.67,0.899,8.711,3.564,11.377,7.504c5.503,8.131,3.366,19.224-4.765,24.729l-37.169,25.158l37.169,25.159  c8.131,5.504,10.269,16.597,4.765,24.729C212.158,417.572,206.642,420.498,200.718,420.498z M205.105,396.225l-43.286-29.3  c-1.374-0.93-2.197-2.481-2.197-4.141s0.823-3.211,2.197-4.141l43.286-29.299c3.564-2.413,4.502-7.277,2.089-10.842  c-1.169-1.728-2.94-2.896-4.988-3.291c-0.498-0.096-0.998-0.143-1.493-0.143c-1.545,0-3.053,0.459-4.359,1.344l-58.956,39.906  c-2.148,1.454-3.431,3.87-3.431,6.465s1.282,5.012,3.431,6.466l58.955,39.905c1.298,0.879,2.808,1.343,4.365,1.343  c2.601,0,5.022-1.283,6.477-3.432C209.607,403.501,208.67,398.638,205.105,396.225z M368.208,377.531l-58.955,39.905  c-2.959,2.003-6.407,3.062-9.971,3.062c-5.924,0-11.44-2.926-14.758-7.826c-5.504-8.132-3.366-19.225,4.765-24.729l37.169-25.159  l-37.169-25.158c-8.131-5.505-10.268-16.598-4.765-24.729c2.666-3.939,6.707-6.604,11.378-7.504  c4.669-0.901,9.412,0.072,13.351,2.739l58.955,39.905c4.899,3.315,7.825,8.828,7.825,14.746  C376.033,368.701,373.108,374.214,368.208,377.531z M366.033,362.784c0-2.595-1.282-5.011-3.431-6.465l-58.955-39.905  c-1.308-0.885-2.816-1.345-4.36-1.345c-0.496,0-0.996,0.048-1.493,0.144c-2.048,0.395-3.819,1.563-4.988,3.29  c-2.413,3.564-1.476,8.429,2.089,10.842l43.286,29.299c1.374,0.93,2.197,2.481,2.197,4.141s-0.823,3.211-2.197,4.141l-43.286,29.3  c-3.564,2.413-4.502,7.276-2.089,10.842c1.454,2.148,3.876,3.432,6.477,3.432c1.558,0,3.067-0.464,4.365-1.343l58.955-39.905  C364.751,367.796,366.033,365.379,366.033,362.784z M261.479,427.79c-0.88,9.183-8.494,16.107-17.711,16.107  c-0.569,0-1.147-0.027-1.716-0.083c-4.733-0.453-9.008-2.724-12.035-6.393s-4.444-8.298-3.99-13.032l12.495-130.301  c0.455-4.745,2.73-9.027,6.407-12.055c3.669-3.021,8.296-4.434,13.026-3.97c4.727,0.453,9.001,2.724,12.028,6.393  s4.444,8.298,3.99,13.032L261.479,427.79z M264.019,296.534c0.199-2.076-0.422-4.104-1.749-5.713s-3.201-2.604-5.276-2.803  c-0.26-0.025-0.519-0.038-0.776-0.038c-1.802,0-3.526,0.616-4.931,1.772c-1.612,1.328-2.61,3.207-2.81,5.291l-12.495,130.301  c-0.199,2.076,0.422,4.104,1.749,5.713s3.201,2.604,5.276,2.803c4.404,0.43,8.107-2.749,8.517-7.024L264.019,296.534z M467.12,490  H32.88c-2.762,0-5,2.238-5,5s2.238,5,5,5h434.24c2.762,0,5-2.238,5-5S469.882,490,467.12,490z M191.976,462.392  c-2.762,0-5,2.238-5,5s2.238,5,5,5h6.977c2.762,0,5-2.238,5-5s-2.238-5-5-5H191.976z M219.244,472.392h6.976c2.762,0,5-2.238,5-5  s-2.238-5-5-5h-6.976c-2.762,0-5,2.238-5,5S216.482,472.392,219.244,472.392z M246.512,462.392c-2.762,0-5,2.238-5,5s2.238,5,5,5  h6.977c2.762,0,5-2.238,5-5s-2.238-5-5-5H246.512z M273.78,472.392h6.976c2.762,0,5-2.238,5-5s-2.238-5-5-5h-6.976  c-2.762,0-5,2.238-5,5S271.019,472.392,273.78,472.392z M301.048,462.392c-2.762,0-5,2.238-5,5s2.238,5,5,5h6.977  c2.762,0,5-2.238,5-5s-2.238-5-5-5H301.048z"/>
</svg>
